<?xml version="1.0" encoding="UTF-8" standalone="no"?>
<!-- Created with Inkscape (http://www.inkscape.org/) -->

<svg
   xmlns:dc="http://purl.org/dc/elements/1.1/"
   xmlns:cc="http://creativecommons.org/ns#"
   xmlns:rdf="http://www.w3.org/1999/02/22-rdf-syntax-ns#"
   xmlns:svg="http://www.w3.org/2000/svg"
   xmlns="http://www.w3.org/2000/svg"
   xmlns:sodipodi="http://sodipodi.sourceforge.net/DTD/sodipodi-0.dtd"
   xmlns:inkscape="http://www.inkscape.org/namespaces/inkscape"
   width="297mm"
   height="210mm"
   viewBox="0 0 297 210"
   version="1.1"
   id="svg8"
   inkscape:version="0.92.2 (5c3e80d, 2017-08-06)"
   sodipodi:docname="seg.svg">
  <defs
     id="defs2" />
  <sodipodi:namedview
     id="base"
     pagecolor="#ffffff"
     bordercolor="#666666"
     borderopacity="1.0"
     inkscape:pageopacity="0.0"
     inkscape:pageshadow="2"
     inkscape:zoom="0.51445126"
     inkscape:cx="461.87048"
     inkscape:cy="364.26314"
     inkscape:document-units="mm"
     inkscape:current-layer="layer1"
     showgrid="false"
     inkscape:window-width="1366"
     inkscape:window-height="705"
     inkscape:window-x="-8"
     inkscape:window-y="-8"
     inkscape:window-maximized="1" />
  <metadata
     id="metadata5">
    <rdf:RDF>
      <cc:Work
         rdf:about="">
        <dc:format>image/svg+xml</dc:format>
        <dc:type
           rdf:resource="http://purl.org/dc/dcmitype/StillImage" />
        <dc:title></dc:title>
      </cc:Work>
    </rdf:RDF>
  </metadata>
  <g
     inkscape:label="Capa 1"
     inkscape:groupmode="layer"
     id="layer1"
     transform="translate(0,-87)">
    <path
       style="opacity:1;fill:#003380;fill-opacity:0.87939698;fill-rule:nonzero;stroke:none;stroke-width:1.06500006;stroke-linecap:butt;stroke-linejoin:miter;stroke-miterlimit:4;stroke-dasharray:none;stroke-dashoffset:0;stroke-opacity:1;paint-order:stroke fill markers"
       d="m 62.85716,226.29913 c 0,-0.1383 0.353109,-0.81028 0.784661,-1.4931 2.925744,-4.62897 2.770932,-12.14447 -0.374107,-18.16586 -1.337469,-2.56064 -1.097614,-2.94992 0.995837,-1.61615 1.634973,1.04166 4.728145,5.56245 3.16849,4.63086 -0.520654,-0.31101 -0.806827,0.62487 -0.470189,1.53772 0.252617,0.68499 0.311347,0.69566 0.548019,0.0996 0.481987,-1.21387 1.083216,-0.69651 1.744168,1.50083 0.689513,2.29232 0.586042,3.78739 -0.490633,7.08866 -0.35489,1.08813 -0.865177,1.89124 -1.201669,1.89124 -0.374895,0 -0.584845,0.42786 -0.584845,1.19196 0,0.94009 -0.361286,1.44489 -1.709706,2.38893 -1.664762,1.16552 -2.410026,1.45785 -2.410026,0.94537 z"
       id="path828"
       inkscape:connector-curvature="0" />
    <path
       style="opacity:1;fill:#003380;fill-opacity:0.87939698;fill-rule:nonzero;stroke:none;stroke-width:1.06500006;stroke-linecap:butt;stroke-linejoin:miter;stroke-miterlimit:4;stroke-dasharray:none;stroke-dashoffset:0;stroke-opacity:1;paint-order:stroke fill markers"
       d="m 55.935509,225.4558 c 0.08265,-0.16427 0.401442,-0.78144 0.708058,-1.37156 0.510345,-0.98217 0.465692,-1.17842 -0.528189,-2.31995 -1.375989,-1.58042 -1.394037,-2.88983 -0.05169,-3.73997 1.297225,-0.82146 2.247124,-0.39673 3.502208,1.56595 1.158388,1.81142 0.880801,2.87101 -1.236335,4.71954 -1.489273,1.30038 -2.784541,1.92037 -2.394168,1.14599 z"
       id="path830"
       inkscape:connector-curvature="0" />
    <path
       style="opacity:1;fill:#003380;fill-opacity:0.87939698;fill-rule:nonzero;stroke:none;stroke-width:1.06500006;stroke-linecap:butt;stroke-linejoin:miter;stroke-miterlimit:4;stroke-dasharray:none;stroke-dashoffset:0;stroke-opacity:1;paint-order:stroke fill markers"
       d="m 55.936035,212.93379 c -0.750434,-0.72527 -0.596206,-2.89314 0.259042,-3.64115 1.498589,-1.31071 3.366349,-0.34762 3.366349,1.73586 0,1.80171 -2.417794,3.07236 -3.625362,1.90529 z"
       id="path832"
       inkscape:connector-curvature="0" />
    <path
       style="opacity:1;fill:#003380;fill-opacity:0.87939698;fill-rule:nonzero;stroke:none;stroke-width:1.06500006;stroke-linecap:butt;stroke-linejoin:miter;stroke-miterlimit:4;stroke-dasharray:none;stroke-dashoffset:0;stroke-opacity:1;paint-order:stroke fill markers"
       d="m 88.850935,234.01619 c -0.193624,-0.49272 -0.426674,-1.2542 -0.517879,-1.69217 -0.144269,-0.6925 -0.440868,-0.78011 -2.275423,-0.67206 -2.530026,0.14902 -2.894934,-0.24951 -2.170755,-2.37016 0.52448,-1.53583 0.509936,-1.58322 -0.813807,-2.65125 -1.716599,-1.38503 -1.653722,-2.85961 0.141641,-3.32092 1.534364,-0.39421 1.874886,-0.94228 1.882684,-3.02986 0.0058,-1.44271 0.131711,-1.69216 0.857321,-1.69216 0.468086,0 1.226901,0.19447 1.686285,0.43201 1.240802,0.6418 2.649442,0.12701 3.206018,-1.17162 0.479797,-1.11954 2.167192,-2.23267 2.661007,-1.75542 0.1358,0.13125 0.247068,0.71223 0.247068,1.29081 0,1.74255 0.879931,2.48252 3.209231,2.69884 1.1614,0.10782 2.42533,0.0799 2.8087,-0.0624 0.623514,-0.23116 0.596674,-0.36179 -0.25437,-1.23727 l -0.95142,-0.97878 1.540624,-0.6221 c 1.49686,-0.60447 1.53278,-0.66682 1.26545,-2.1961 -0.29952,-1.71328 -0.0765,-1.86411 1.63951,-1.1085 0.93161,0.41022 1.19328,0.33934 2.20477,-0.59724 1.49296,-1.38237 1.93134,-1.34004 2.39619,0.23144 0.31619,1.06885 0.62768,1.32863 1.79016,1.4931 1.33992,0.18939 1.4094,0.27999 1.45002,1.88988 0.0298,1.18184 0.28387,1.86124 0.84363,2.25687 0.91365,0.64567 0.56595,1.19879 -0.76463,1.2164 -0.82283,0.0113 -0.89254,0.18347 -0.76798,1.90318 0.15945,2.2031 -0.24211,2.36341 -2.78297,1.11062 l -1.58322,-0.78058 -0.24386,1.17875 c -0.24823,1.19979 -1.50046,1.6968 -1.50046,0.59555 0,-0.74229 -1.27394,-1.40755 -2.69539,-1.40755 -0.97863,0 -1.07188,-0.11488 -0.83483,-1.02761 0.38637,-1.48779 -0.934654,-1.1391 -1.931024,0.50965 l -0.76813,1.27117 1.26081,1.27506 c 1.666454,1.68531 1.620874,2.59353 -0.16646,3.31527 -1.45315,0.58679 -2.20537,1.9933 -1.7199,3.21594 0.62526,1.57479 -0.89345,2.34555 -2.26246,1.14817 -1.05702,-0.92454 -2.612212,-0.42648 -3.239667,1.03751 -0.642874,1.49999 -2.306555,1.6775 -2.846454,0.30368 z m 3.757337,-5.09372 c 1.908064,-0.51217 2.794714,-1.34306 2.794714,-2.61902 0,-2.22805 -2.274089,-4.53058 -4.474632,-4.53058 -1.615319,0 -4.00937,3.92281 -3.691423,6.04866 0.201802,1.35002 2.606892,1.84294 5.371341,1.10094 z m 14.632388,-8.18912 c 0.98439,-0.60235 1.60659,-2.21159 1.13824,-2.94397 -0.46762,-0.73122 -2.32747,-1.24249 -3.56459,-0.97989 -0.91719,0.19476 -1.24702,0.56927 -1.59222,1.80815 -0.26809,0.9621 -0.67993,1.56259 -1.07177,1.56259 -0.96316,0 -0.43912,0.93548 0.69872,1.24728 1.25756,0.3446 3.19431,0.0384 4.39162,-0.69416 z"
       id="path834"
       inkscape:connector-curvature="0" />
    <path
       style="opacity:1;fill:#003380;fill-opacity:0.87939698;fill-rule:nonzero;stroke:none;stroke-width:1.06500006;stroke-linecap:butt;stroke-linejoin:miter;stroke-miterlimit:4;stroke-dasharray:none;stroke-dashoffset:0;stroke-opacity:1;paint-order:stroke fill markers"
       d="m 89.906116,226.92699 c -1.360132,-1.03399 -1.373653,-1.57678 -0.06892,-2.76149 0.886029,-0.80447 1.168376,-0.86865 2.071431,-0.47099 1.867614,0.82239 1.838906,2.30205 -0.06834,3.52602 -0.732239,0.46986 -0.979308,0.43238 -1.934171,-0.29354 z"
       id="path836"
       inkscape:connector-curvature="0" />
    <path
       style="opacity:1;fill:#003380;fill-opacity:0.87939698;fill-rule:nonzero;stroke:none;stroke-width:1.06500006;stroke-linecap:butt;stroke-linejoin:miter;stroke-miterlimit:4;stroke-dasharray:none;stroke-dashoffset:0;stroke-opacity:1;paint-order:stroke fill markers"
       d="m 105.29034,220.57839 c 0,-0.21902 0.26284,-0.39816 0.58426,-0.39816 0.32134,0 0.92385,-0.12307 1.3389,-0.2735 0.66431,-0.24076 0.68698,-0.19334 0.18925,0.39816 -0.61221,0.72739 -2.11241,0.92172 -2.11241,0.2735 z"
       id="path838"
       inkscape:connector-curvature="0" />
    <path
       style="opacity:1;fill:#003380;fill-opacity:0.87939698;fill-rule:nonzero;stroke:none;stroke-width:1.06500006;stroke-linecap:butt;stroke-linejoin:miter;stroke-miterlimit:4;stroke-dasharray:none;stroke-dashoffset:0;stroke-opacity:1;paint-order:stroke fill markers"
       d="m 104.28022,219.81308 c -0.41557,-0.64988 0.57945,-2.08365 1.34691,-1.94081 1.07749,0.20068 0.91345,2.07854 -0.1948,2.23118 -0.48844,0.0672 -1.00684,-0.0635 -1.15199,-0.29037 z"
       id="path840"
       inkscape:connector-curvature="0" />
    <path
       style="opacity:1;fill:#003380;fill-opacity:0.87939698;fill-rule:nonzero;stroke:none;stroke-width:1.06500006;stroke-linecap:butt;stroke-linejoin:miter;stroke-miterlimit:4;stroke-dasharray:none;stroke-dashoffset:0;stroke-opacity:1;paint-order:stroke fill markers"
       d="m 151.37306,243.38942 c -2.3074,-0.96201 -3.15009,-1.81627 -1.79165,-1.81627 0.41958,0 1.68637,-0.72865 2.81515,-1.6192 3.57162,-2.81787 4.00122,-3.89309 1.53734,-3.84774 -0.84967,0.0169 -1.91057,0.26673 -2.35752,0.55781 -1.20234,0.7833 -1.50063,0.65149 -1.19436,-0.52778 0.25057,-0.96509 0.18836,-1.03492 -0.71311,-0.80175 -0.5432,0.14056 -1.26572,0.25854 -1.6056,0.26249 -0.33988,0.003 -1.23706,0.37172 -1.99375,0.81759 -1.19235,0.70255 -1.30262,0.8958 -0.82715,1.44946 0.48616,0.56617 0.43176,0.60362 -0.47813,0.32919 -2.18369,-0.65866 -2.75093,-0.95793 -4.5144,-2.38184 -4.43686,-3.58259 -10.88911,-11.63439 -13.34712,-16.65592 -2.16868,-4.43049 -2.24164,-3.91874 1.03389,-7.2514 2.88795,-2.9383 3.16148,-3.39537 1.52554,-2.54919 -1.36933,0.70825 -1.36606,0.0855 0.009,-1.42629 0.70993,-0.78143 1.29075,-1.59372 1.29075,-1.80509 0,-0.65471 -0.79746,-0.42439 -1.54894,0.44736 -1.01132,1.17323 -4.03487,3.1499 -4.81807,3.1499 -0.36131,0 -0.82697,-0.43232 -1.03485,-0.96069 -0.45556,-1.15804 -2.48546,-12.81413 -2.48546,-14.27198 0,-0.69467 0.57214,-1.56069 1.75086,-2.65015 1.75506,-1.62211 1.45072,-2.27563 -0.45802,-0.98352 -1.32926,0.89981 -1.64674,0.40723 -2.09631,-3.25261 -0.73422,-5.97691 -1.73859,-22.16782 -1.39462,-22.48151 0.18924,-0.17273 2.51361,-0.86893 5.16516,-1.54729 10.5101,-2.6889 19.34413,-6.41244 28.63767,-12.0708 l 2.56069,-1.55906 4.8548,2.85105 c 4.56335,2.6799 9.9193,5.34504 15.53844,7.73196 l 2.44416,1.03823 -1.8262,1.87328 c -1.00442,1.03033 -2.01162,1.94614 -2.23819,2.03516 -0.6677,0.26249 -3.82231,3.5227 -4.36808,4.51455 -0.36771,0.66819 -0.0304,0.50229 1.25733,-0.61866 0.96792,-0.84246 2.41219,-1.79519 3.20946,-2.11715 0.79731,-0.32197 2.44525,-1.59482 3.66205,-2.82854 l 2.2124,-2.24317 4.05933,0.88477 c 2.23261,0.48662 4.87449,1.11587 5.87083,1.39831 l 1.81148,0.51356 -0.0899,4.55462 c -0.0973,4.92226 -1.00028,16.05066 -2.00102,24.66154 -1.24737,10.73326 -3.78371,20.57525 -6.77204,26.27835 -3.12445,5.96285 -11.15747,14.88556 -16.99508,18.87732 -4.16672,2.84922 -8.72718,5.01492 -10.52056,4.99607 -0.83749,-0.008 -2.53604,-0.43848 -3.77459,-0.95482 z m 7.40151,-11.4875 c 2.12505,-1.75398 4.53172,-4.64752 4.53172,-5.4484 0,-1.08022 1.6039,-2.79743 2.61285,-2.79743 0.59851,0 2.16736,-1.24776 4.63069,-3.68295 4.20787,-4.15979 4.99811,-5.07648 4.37614,-5.07648 -0.23568,0 -2.13822,1.52294 -4.22805,3.38431 -3.47055,3.09122 -4.91981,3.98245 -4.91981,3.02557 0,-0.19729 1.11846,-1.29518 2.48549,-2.43976 2.8831,-2.41391 3.64691,-3.50409 2.80968,-4.01034 -0.36225,-0.21902 -0.77388,-0.0835 -1.17544,0.38685 -1.06379,1.24622 -3.6524,2.91866 -4.10192,2.65018 -0.23626,-0.14112 -0.43786,0.0675 -0.4477,0.46354 -0.009,0.39616 -1.11493,1.88489 -2.45573,3.3083 -2.35854,2.50386 -2.63881,3.32862 -0.80969,2.38252 0.48514,-0.25092 0.98533,-0.35648 1.11149,-0.23455 0.44668,0.4317 -0.82835,1.43501 -2.31543,1.822 -1.45996,0.37997 -5.25876,3.59498 -4.24774,3.59498 0.27248,0 0.49557,0.19136 0.49557,0.42498 0,0.23596 -0.34724,0.31849 -0.78052,0.18544 -0.45582,-0.13971 -1.0557,0.0254 -1.4419,0.39975 -0.83343,0.80548 -0.85957,1.54133 -0.0435,1.22217 0.33988,-0.13294 0.89601,-0.35044 1.23589,-0.48338 0.68251,-0.26701 0.86024,0.44812 0.20823,0.8376 -0.22546,0.13463 -0.60584,0.59887 -0.84552,1.0317 -0.39779,0.71836 -0.33512,0.76326 0.71871,0.51516 0.63499,-0.14959 1.8034,-0.80734 2.59644,-1.46193 z m -21.49027,-8.84213 c -0.12879,-0.12447 -0.99785,0.39071 -1.93151,1.1446 -1.18406,0.95606 -1.97965,1.31221 -2.63,1.17726 l -0.9324,-0.19334 1.00127,0.84904 1.00127,0.849 1.86268,-1.80018 c 1.02445,-0.99011 1.75736,-1.90194 1.62869,-2.0263 z m 24.51283,-8.02152 1.16866,-0.22016 -0.27568,-2.44924 c -0.15157,-1.34709 -0.63123,-4.64113 -1.0657,-7.3201 -1.03786,-6.39974 -1.01035,-7.12177 0.34304,-9.00919 1.01324,-1.41311 1.13292,-1.9285 1.13292,-4.87964 v -3.29966 l -1.61529,-1.59871 c -2.19654,-2.174 -3.77682,-2.81936 -6.90375,-2.81936 -3.05091,0 -3.77833,0.38676 -6.12589,3.25704 -1.43764,1.75773 -1.628,2.24018 -1.628,4.12586 0,2.37555 0.44052,3.59661 2.1563,5.97713 l 1.16365,1.61444 -0.60365,2.36714 c -0.332,1.30193 -1.01564,4.8382 -1.51918,7.8584 -1.04055,6.24121 -1.03471,6.26082 1.99754,6.70108 1.99813,0.29012 9.66954,0.0914 11.77508,-0.30512 z m 17.98806,-0.97111 c 0,-0.97031 -0.96269,-0.83317 -1.16315,0.16568 -0.0789,0.39289 0.13142,0.6638 0.51499,0.6638 0.38214,0 0.64816,-0.34045 0.64816,-0.82951 z m -6.79756,-0.76859 c 0,-0.85344 -1.19706,-0.73018 -1.37068,0.14112 -0.10601,0.5321 0.0616,0.69425 0.61233,0.5918 0.41709,-0.0776 0.75835,-0.40746 0.75835,-0.73295 z m 9.16658,0.30407 c -0.25963,-0.75338 -1.54508,-0.8605 -1.54508,-0.12871 0,0.36935 0.35223,0.62643 0.85828,0.62643 0.5034,0 0.78738,-0.20576 0.6868,-0.49769 z m -7.3261,-2.05624 c 0.20793,-0.52874 0.75957,-1.07831 1.22573,-1.2213 0.46613,-0.1431 0.84754,-0.48614 0.84754,-0.76255 0,-0.27632 1.06123,-1.63591 2.35831,-3.02116 2.75235,-2.93946 1.66461,-2.57589 -1.93821,0.64781 -2.88269,2.57937 -4.29051,4.34387 -3.92362,4.91763 0.4352,0.68053 1.03441,0.44573 1.43025,-0.56043 z m 9.55932,0.30237 c 0.86007,-0.75225 0.97794,-1.33185 0.27073,-1.33185 -0.57504,0 -1.98931,1.17613 -1.98931,1.65435 0,0.55323 0.9131,0.38188 1.71844,-0.3225 z m -18.60932,-3.40121 c 0,-0.18572 -0.46347,-0.0443 -1.02992,0.31428 -0.56648,0.35871 -1.02995,0.93159 -1.02995,1.27306 0,0.47855 0.23597,0.40652 1.02995,-0.31429 0.56645,-0.51431 1.02992,-1.08719 1.02992,-1.27305 z m -32.90956,-4.62745 c -0.47971,-0.07 -0.87218,-0.29393 -0.87218,-0.49769 0,-0.20378 -0.18545,-0.37048 -0.41196,-0.37048 -0.57109,0 -0.51744,1.33145 0.0768,1.90572 0.37703,0.36438 0.67059,0.31431 1.28414,-0.21903 0.78355,-0.68106 0.78241,-0.69323 -0.0768,-0.81858 z m 9.80981,-8.99234 c -0.28328,-0.27378 -4.50239,3.73379 -4.50239,4.27644 0,0.25007 1.05725,-0.56704 2.34942,-1.81588 1.2922,-1.24887 2.26103,-2.3561 2.15297,-2.46056 z m 37.79985,-5.67578 c 3.31836,-1.87949 2.96467,-2.67806 -0.41433,-0.93543 -1.27763,0.65894 -2.69727,1.19807 -3.15473,1.19807 -0.84062,0 -1.07948,0.42413 -0.53514,0.95022 0.43453,0.41998 2.07961,-0.0661 4.1042,-1.21286 z m -57.26819,-0.23511 c 1.31633,-0.86837 2.00581,-1.80848 1.60822,-2.19274 -0.32113,-0.31033 -3.10027,1.51057 -3.55284,2.32785 -0.58438,1.0553 0.22545,0.99902 1.94462,-0.13519 z m 4.25466,-2.46937 c 0,-0.66893 -1.12305,-1.11497 -1.46416,-0.58152 -0.32069,0.50148 0.60681,1.62474 1.09887,1.33084 0.20093,-0.11996 0.36529,-0.45719 0.36529,-0.74932 z m 50.75434,-1.71127 c 1.58696,-1.47817 3.25152,-3.18228 3.69899,-3.78691 l 0.8136,-1.09936 -1.45966,0.83232 c -0.8028,0.45778 -1.68266,0.69916 -1.9552,0.53636 -0.34379,-0.20548 -0.41128,-0.0838 -0.22049,0.39698 0.1983,0.4993 -0.35787,1.33436 -1.98984,2.98795 -2.12744,2.15559 -2.60324,2.8202 -2.01895,2.8202 0.13522,0 1.54447,-1.20938 3.13146,-2.68754 z m -42.14465,-4.35875 c 2.96855,-3.00784 5.39739,-5.65065 5.39739,-5.8729 0,-0.22213 -1.80754,1.31139 -4.01676,3.40813 -4.07245,3.86512 -6.10422,5.52952 -6.75011,5.52952 -0.82023,0 -0.26955,-1.61026 0.77652,-2.27084 1.92999,-1.21864 11.22624,-10.46842 11.22624,-11.17009 0,-0.45055 -0.633,-0.0613 -1.97102,1.21257 -1.08404,1.03196 -2.28906,1.87628 -2.6778,1.87628 -0.38874,0 -0.70681,0.2687 -0.70681,0.59724 0,0.32845 -0.26926,0.59721 -0.59862,0.59721 -0.32925,0 -0.90802,0.63015 -1.28619,1.40032 -0.63879,1.30097 -2.81115,3.15253 -8.98222,7.65567 -2.62108,1.91263 -3.00804,2.72935 -0.8874,1.873 0.78577,-0.3173 2.20489,-0.57691 3.15362,-0.57691 1.64502,0 1.69339,0.0339 1.04318,0.72814 -0.37501,0.40046 -0.6818,0.85468 -0.6818,1.00938 0,0.74909 2.02908,-0.99871 6.96178,-5.99672 z m 8.67586,2.42568 c 0.71723,-0.78945 1.19916,-1.53668 1.07101,-1.66056 -0.27744,-0.26785 -2.2011,1.408 -2.75394,2.39915 -0.67359,1.20768 0.30498,0.77821 1.68293,-0.73859 z m 2.48759,-3.14186 c 0.53135,-0.5466 0.87003,-1.08663 0.75269,-1.20006 -0.27832,-0.26899 -2.39905,1.34387 -2.39905,1.82462 0,0.64661 0.65064,0.39978 1.64636,-0.62456 z m 16.28508,-6.88405 c -0.16676,-0.15637 -1.13042,0.61152 -2.1415,1.70645 -2.87484,3.11323 -2.95325,3.85837 -0.1136,1.08067 1.40712,-1.37653 2.422,-2.6307 2.25524,-2.78712 z m 25.54195,3.41372 c 0.6939,-0.79699 0.93156,-1.3375 0.63073,-1.43442 -0.54098,-0.17415 -1.95552,0.94294 -2.54755,2.01209 -0.68303,1.23346 0.70388,0.81548 1.91682,-0.57767 z m -36.63363,-2.98801 c -0.34732,-0.32972 -2.72003,2.15783 -2.72003,2.85168 0,0.22354 0.68592,-0.25628 1.52429,-1.06662 0.83837,-0.81025 1.37646,-1.61353 1.19574,-1.78506 z m 13.11147,-1.53481 c 0.79877,-0.77195 0.83346,-1.3651 0.0797,-1.3651 -0.76036,0 -1.62983,1.05553 -1.29752,1.57518 0.34964,0.54674 0.45302,0.52893 1.21765,-0.21 z m 20.56972,-1.93216 c 1.08226,-1.59635 0.78791,-1.68449 -0.76562,-0.22919 -0.79304,0.74285 -1.4419,1.501 -1.4419,1.68472 0,0.57677 1.50043,-0.41251 2.20752,-1.45548 z m -16.68838,-1.62279 c 2.33497,-2.81609 2.39963,-3.25595 0.20502,-1.39355 -0.77418,0.65693 -1.65916,1.19445 -1.96659,1.19445 -0.60821,0 -1.23564,1.79259 -0.84255,2.40724 0.13347,0.20887 0.29146,0.37985 0.35063,0.37985 0.0593,0 1.0734,-1.16461 2.25364,-2.58799 z"
       id="path842"
       inkscape:connector-curvature="0" />
    <path
       style="opacity:1;fill:#003380;fill-opacity:0.87939698;fill-rule:nonzero;stroke:none;stroke-width:1.06500006;stroke-linecap:butt;stroke-linejoin:miter;stroke-miterlimit:4;stroke-dasharray:none;stroke-dashoffset:0;stroke-opacity:1;paint-order:stroke fill markers"
       d="m 53.940228,173.15355 c 1.819165,-5.50146 2.12508,-9.20047 1.221324,-14.76792 -0.385351,-2.37397 -0.609757,-4.40416 -0.498664,-4.51152 0.478308,-0.46227 1.838878,0.75335 2.847244,2.54391 2.238041,3.97412 2.27075,9.85599 0.07505,13.51535 -1.956863,3.26148 -4.361019,5.3854 -3.645046,3.22018 z"
       id="path844"
       inkscape:connector-curvature="0" />
    <path
       style="opacity:1;fill:#ff0000;fill-opacity:0.87939698;fill-rule:nonzero;stroke:none;stroke-width:4.02519703;stroke-linecap:butt;stroke-linejoin:miter;stroke-miterlimit:4;stroke-dasharray:none;stroke-dashoffset:0;stroke-opacity:1;paint-order:stroke fill markers"
       d=""
       id="path846"
       inkscape:connector-curvature="0"
       transform="matrix(0.26458333,0,0,0.26458333,0,87)" />
    <path
       style="opacity:1;fill:#ff0000;fill-opacity:0.87939698;fill-rule:nonzero;stroke:none;stroke-width:4.02519703;stroke-linecap:butt;stroke-linejoin:miter;stroke-miterlimit:4;stroke-dasharray:none;stroke-dashoffset:0;stroke-opacity:1;paint-order:stroke fill markers"
       d=""
       id="path848"
       inkscape:connector-curvature="0"
       transform="matrix(0.26458333,0,0,0.26458333,0,87)" />
    <path
       style="opacity:1;fill:#003380;fill-opacity:0.87939698;fill-rule:nonzero;stroke:none;stroke-width:1.06500006;stroke-linecap:butt;stroke-linejoin:miter;stroke-miterlimit:4;stroke-dasharray:none;stroke-dashoffset:0;stroke-opacity:1;paint-order:stroke fill markers"
       d="m 45.673545,161.45786 c -1.033073,-0.99843 -0.639136,-2.31498 0.738372,-2.46762 2.09129,-0.23173 3.262937,1.8148 1.547068,2.70231 -1.088444,0.563 -1.504255,0.5203 -2.28544,-0.23455 z"
       id="path850"
       inkscape:connector-curvature="0" />
    <path
       style="opacity:1;fill:#003380;fill-opacity:0.87939698;fill-rule:nonzero;stroke:none;stroke-width:1.06500006;stroke-linecap:butt;stroke-linejoin:miter;stroke-miterlimit:4;stroke-dasharray:none;stroke-dashoffset:0;stroke-opacity:1;paint-order:stroke fill markers"
       d="m 45.322743,169.0061 c -0.150986,-0.14592 -0.27452,-0.6772 -0.27452,-1.18045 0,-1.07303 1.32567,-1.89186 2.486424,-1.5358 0.849961,0.2608 1.487257,1.84554 1.029801,2.5609 -0.294788,0.46097 -2.8011,0.58107 -3.241588,0.15524 z"
       id="path852"
       inkscape:connector-curvature="0" />
    <path
       style="opacity:1;fill:#003380;fill-opacity:0.87939698;fill-rule:nonzero;stroke:none;stroke-width:1.06500006;stroke-linecap:butt;stroke-linejoin:miter;stroke-miterlimit:4;stroke-dasharray:none;stroke-dashoffset:0;stroke-opacity:1;paint-order:stroke fill markers"
       d="m 249.38322,217.79085 c 0.003,-0.16427 0.39201,-1.46324 0.86459,-2.88665 1.63684,-4.92993 1.49853,-13.4709 -0.30115,-18.59395 -0.34537,-0.98313 -0.51806,-1.89375 -0.38372,-2.02355 0.52165,-0.50418 3.92915,3.32754 5.01546,5.6399 0.97639,2.07828 1.14545,2.96147 1.15234,6.01907 0.006,3.1873 -0.13346,3.87494 -1.27246,6.22057 -1.59955,3.29419 -5.10269,7.17664 -5.07506,5.62461 z"
       id="path854"
       inkscape:connector-curvature="0" />
    <path
       style="opacity:1;fill:#003380;fill-opacity:0.87939698;fill-rule:nonzero;stroke:none;stroke-width:1.06500006;stroke-linecap:butt;stroke-linejoin:miter;stroke-miterlimit:4;stroke-dasharray:none;stroke-dashoffset:0;stroke-opacity:1;paint-order:stroke fill markers"
       d="m 239.57297,204.07436 c -0.64486,-0.62323 -0.63338,-2.3885 0.0204,-3.17296 0.86188,-1.03382 1.84621,-1.12679 2.96053,-0.27971 1.3094,0.99544 1.34109,1.94035 0.1028,3.06472 -1.05629,0.95905 -2.32741,1.11895 -3.08383,0.38792 z"
       id="path856"
       inkscape:connector-curvature="0" />
    <path
       style="opacity:1;fill:#003380;fill-opacity:0.87939698;fill-rule:nonzero;stroke:none;stroke-width:1.06500006;stroke-linecap:butt;stroke-linejoin:miter;stroke-miterlimit:4;stroke-dasharray:none;stroke-dashoffset:0;stroke-opacity:1;paint-order:stroke fill markers"
       d="m 239.24016,212.28685 c -0.60631,-2.33468 1.75743,-4.05756 3.7958,-2.76675 1.31346,0.83176 1.24325,1.52099 -0.28124,2.76071 -1.67884,1.36527 -3.16095,1.36781 -3.51459,0.006 z"
       id="path858"
       inkscape:connector-curvature="0" />
    <path
       style="opacity:1;fill:#ff0000;fill-opacity:0.87939698;fill-rule:nonzero;stroke:none;stroke-width:4.02519703;stroke-linecap:butt;stroke-linejoin:miter;stroke-miterlimit:4;stroke-dasharray:none;stroke-dashoffset:0;stroke-opacity:1;paint-order:stroke fill markers"
       d=""
       id="path860"
       inkscape:connector-curvature="0"
       transform="matrix(0.26458333,0,0,0.26458333,0,87)" />
    <path
       style="opacity:1;fill:#003380;fill-opacity:0.87939698;fill-rule:nonzero;stroke:none;stroke-width:1.06500006;stroke-linecap:butt;stroke-linejoin:miter;stroke-miterlimit:4;stroke-dasharray:none;stroke-dashoffset:0;stroke-opacity:1;paint-order:stroke fill markers"
       d="m 253.05872,177.53485 c -0.0263,-0.0469 -0.0873,-0.41782 -0.13258,-0.82425 -0.14252,-1.27944 -0.51467,-3.20994 -0.77517,-4.02217 -0.18633,-0.58106 -0.38681,-0.92247 -0.78014,-1.32888 -0.6066,-0.62673 -0.86357,-1.30052 -0.86357,-2.26426 0,-1.42189 0.75394,-4.48734 1.13877,-4.63004 0.12119,-0.0449 0.35351,0.11121 0.68589,0.46097 0.27656,0.29094 0.55727,0.52899 0.62412,0.52899 0.0669,0 0.24532,-0.21733 0.39686,-0.48318 0.33897,-0.59507 0.64419,-0.66066 1.08622,-0.23342 0.8118,0.78456 1.40272,2.5841 1.4113,4.29789 0.009,1.6211 -0.31619,2.33067 -1.06517,2.33067 -0.42261,0 -0.83115,0.59515 -1.03357,1.50571 -0.16325,0.73492 -0.4194,3.39927 -0.42068,4.37777 -4.1e-4,0.33763 -0.14895,0.49286 -0.27219,0.28423 z"
       id="path862"
       inkscape:connector-curvature="0" />
    <path
       style="opacity:1;fill:#003380;fill-opacity:0.87939698;fill-rule:nonzero;stroke:none;stroke-width:1.06500006;stroke-linecap:butt;stroke-linejoin:miter;stroke-miterlimit:4;stroke-dasharray:none;stroke-dashoffset:0;stroke-opacity:1;paint-order:stroke fill markers"
       d="m 235.18713,186.00483 c -0.11448,-0.0858 -0.29286,-0.6162 -0.44902,-1.33588 -0.14251,-0.65654 -0.31307,-1.30676 -0.37913,-1.44489 -0.15098,-0.31558 -0.89721,-0.65956 -1.76864,-0.81525 -0.87017,-0.15552 -1.07051,-0.26757 -1.29457,-0.7238 -0.29207,-0.5949 -0.41803,-1.62914 -0.56326,-4.62575 -0.1577,-3.25673 -0.0838,-6.70232 0.16471,-7.65702 0.25379,-0.97537 0.73995,-1.66222 1.4026,-1.9815 1.08026,-0.5205 4.22063,-0.63179 5.70841,-0.20238 0.8236,0.23766 1.44936,0.83125 1.79703,1.70436 0.23714,0.59594 0.27832,0.93967 0.32437,2.7199 0.0292,1.12075 -0.006,2.98814 -0.0794,4.14971 -0.0727,1.16159 -0.18516,2.97891 -0.24999,4.0385 -0.10689,1.75316 -0.14135,1.9511 -0.38115,2.19962 -0.32472,0.33642 -0.91996,0.63817 -1.61639,0.8194 -0.68639,0.17867 -1.37278,0.52058 -1.72151,0.85762 -0.55517,0.53652 -0.27569,1.32185 0.58222,1.636 0.42945,0.15721 2.0198,0.1558 2.78384,-0.002 1.18806,-0.24612 1.49441,-0.74362 1.88461,-3.05953 0.39183,-2.32573 0.92104,-3.0486 2.58084,-3.5252 1.15252,-0.33094 2.42597,-0.44486 5.75824,-0.51505 1.65696,-0.035 3.14501,-0.083 3.30677,-0.10641 0.28328,-0.0415 0.29263,-0.0226 0.25437,0.503 l -0.0397,0.54598 -1.66593,0.0759 c -5.82803,0.2656 -6.97699,0.40599 -7.783,0.95099 -0.66612,0.45044 -0.94192,1.19044 -1.16207,3.11806 -0.0975,0.85482 -0.25787,1.70439 -0.35605,1.88793 -0.23276,0.43509 -0.85575,0.67032 -2.15689,0.81438 -1.51103,0.16737 -4.64476,0.15044 -4.88097,-0.0254 z m 0.84535,-4.58736 c 0.47863,-0.52685 0.46458,-0.99363 -0.0315,-1.04859 -0.51242,-0.0567 -0.90405,0.25177 -0.90405,0.71215 0,0.85755 0.34832,0.98281 0.93556,0.33644 z m 2.94639,-7.37859 v -5.6277 h -3.52908 -3.52907 v 5.6277 5.62768 h 3.52907 3.52908 z"
       id="path864"
       inkscape:connector-curvature="0" />
    <path
       style="opacity:1;fill:#003380;fill-opacity:0.87939698;fill-rule:nonzero;stroke:none;stroke-width:1.06500006;stroke-linecap:butt;stroke-linejoin:miter;stroke-miterlimit:4;stroke-dasharray:none;stroke-dashoffset:0;stroke-opacity:1;paint-order:stroke fill markers"
       d="m 206.95741,201.69396 c -0.2529,-0.15129 -0.27276,-0.76024 -0.0423,-1.2931 0.34169,-0.7903 1.18742,-1.25544 2.81021,-1.54557 1.47926,-0.26446 1.87448,-0.73895 2.08475,-2.50309 0.36838,-3.09032 0.48219,-3.86659 0.65841,-4.49078 0.34791,-1.23216 0.38999,-1.57391 0.39516,-3.20785 0.006,-1.7863 -0.23246,-3.74065 -0.5936,-4.87049 -0.45612,-1.42716 -1.30941,-1.95229 -3.41734,-2.10307 -1.55934,-0.11148 -1.92538,-0.27321 -2.10879,-0.93145 -0.16208,-0.58168 -0.0625,-1.41384 0.20297,-1.69747 0.15333,-0.16399 0.36868,-0.20689 1.02872,-0.20519 0.89059,0.002 2.6125,0.22579 3.47847,0.45162 1.41033,0.36789 2.47363,1.17834 2.99563,2.28323 0.40731,0.86218 0.52314,1.53938 0.65009,3.80031 0.14456,2.57654 0.3312,3.13489 1.20301,3.60003 0.92761,0.49493 1.27009,1.39039 0.87473,2.28712 -0.22721,0.5155 -0.61607,0.82318 -1.39471,1.10382 -1.16689,0.42055 -1.33642,0.8052 -1.50364,3.41174 -0.2278,3.55061 -0.72705,4.45042 -2.93185,5.2841 -1.37173,0.51869 -3.95421,0.887 -4.38988,0.62611 z m 6.5092,-6.13353 c 0.14749,-0.90266 -0.15478,-2.28941 -0.43923,-2.01447 -0.11828,0.11431 -0.11652,2.49587 0.002,2.67403 0.16091,0.24217 0.33187,-0.0169 0.43721,-0.65956 z"
       id="path866"
       inkscape:connector-curvature="0" />
    <path
       style="opacity:1;fill:#003380;fill-opacity:0.87939698;fill-rule:nonzero;stroke:none;stroke-width:1.06500006;stroke-linecap:butt;stroke-linejoin:miter;stroke-miterlimit:4;stroke-dasharray:none;stroke-dashoffset:0;stroke-opacity:1;paint-order:stroke fill markers"
       d="m 241.36162,143.55836 c -0.52501,-0.14649 -0.76945,-0.55194 -0.76945,-1.27605 0,-1.15669 0.43377,-1.43919 2.20986,-1.43919 1.75854,0 2.29391,0.3317 2.29391,1.42115 0,1.08827 -0.54276,1.427 -2.2607,1.41088 -0.60056,-0.006 -1.2637,-0.0581 -1.47362,-0.11685 z"
       id="path868"
       inkscape:connector-curvature="0" />
    <path
       style="opacity:1;fill:#003380;fill-opacity:0.87939698;fill-rule:nonzero;stroke:none;stroke-width:1.06500006;stroke-linecap:butt;stroke-linejoin:miter;stroke-miterlimit:4;stroke-dasharray:none;stroke-dashoffset:0;stroke-opacity:1;paint-order:stroke fill markers"
       d="m 249.72654,138.23694 c -1.00094,-0.64722 -1.3832,-1.06515 -1.29278,-1.41336 0.13317,-0.5131 1.08067,-1.30306 1.80786,-1.50735 1.26799,-0.35628 2.92595,-0.059 3.22649,0.57844 0.1983,0.42084 0.0429,0.75632 -0.72681,1.56818 -1.29921,1.37029 -1.8672,1.51616 -3.01476,0.77409 z"
       id="path870"
       inkscape:connector-curvature="0" />
    <path
       style="opacity:1;fill:#003380;fill-opacity:0.87939698;fill-rule:nonzero;stroke:none;stroke-width:1.06500006;stroke-linecap:butt;stroke-linejoin:miter;stroke-miterlimit:4;stroke-dasharray:none;stroke-dashoffset:0;stroke-opacity:1;paint-order:stroke fill markers"
       d="m 256.67378,143.52409 c -0.51823,-0.21818 -0.67015,-0.6669 -0.62056,-1.83346 0.0383,-0.90108 0.0675,-1.00244 0.36023,-1.24571 0.3871,-0.32179 1.47844,-0.46337 2.64293,-0.34285 0.64159,0.0663 0.84608,0.14 1.11756,0.40244 0.31328,0.30274 0.33229,0.37728 0.33229,1.3019 0,1.1492 -0.17231,1.56846 -0.7198,1.75296 -0.52635,0.17725 -2.66501,0.15298 -3.11265,-0.0353 z"
       id="path872"
       inkscape:connector-curvature="0" />
    <path
       style="opacity:1;fill:#003380;fill-opacity:0.87939698;fill-rule:nonzero;stroke:none;stroke-width:1.06500006;stroke-linecap:butt;stroke-linejoin:miter;stroke-miterlimit:4;stroke-dasharray:none;stroke-dashoffset:0;stroke-opacity:1;paint-order:stroke fill markers"
       d="m 248.78964,149.43498 c -0.56642,-0.23822 -0.71001,-0.94683 -0.29286,-1.44514 0.20589,-0.24613 0.32794,-0.27153 1.4702,-0.30718 2.05619,-0.0641 4.32084,0.51979 3.99471,1.02976 -0.40021,0.62583 -4.15507,1.15042 -5.17205,0.72256 z"
       id="path874"
       inkscape:connector-curvature="0" />
    <path
       style="opacity:1;fill:#003380;fill-opacity:0.87939698;fill-rule:nonzero;stroke:none;stroke-width:1.06500006;stroke-linecap:butt;stroke-linejoin:miter;stroke-miterlimit:4;stroke-dasharray:none;stroke-dashoffset:0;stroke-opacity:1;paint-order:stroke fill markers"
       d="m 245.84757,148.62052 c -1.22851,-0.79112 -2.86909,-2.71035 -2.86909,-3.35642 0,-0.51324 0.18604,-0.39235 0.69667,0.45259 0.70269,1.16281 1.60247,1.83419 2.45819,1.83419 0.71781,0 1.3153,0.35812 1.3153,0.78838 0,0.23652 -0.47553,0.57593 -0.80703,0.57593 -0.18516,0 -0.54238,-0.13266 -0.79404,-0.29467 z"
       id="path876"
       inkscape:connector-curvature="0" />
    <path
       style="opacity:1;fill:#003380;fill-opacity:0.87939698;fill-rule:nonzero;stroke:none;stroke-width:1.06500006;stroke-linecap:butt;stroke-linejoin:miter;stroke-miterlimit:4;stroke-dasharray:none;stroke-dashoffset:0;stroke-opacity:1;paint-order:stroke fill markers"
       d="m 242.24327,139.0028 c -0.2205,-0.0759 -0.3235,-0.19137 -0.3235,-0.36261 0,-0.42216 1.44295,-1.91808 2.88208,-2.98786 0.57714,-0.42904 1.46813,-0.87494 1.56369,-0.78259 0.0388,0.0373 -0.43769,0.53983 -1.05874,1.11641 -0.92946,0.86289 -1.15436,1.13885 -1.27141,1.55993 -0.0783,0.28141 -0.1945,0.64983 -0.25846,0.81872 -0.20268,0.5354 -0.94032,0.84221 -1.53358,0.638 z"
       id="path878"
       inkscape:connector-curvature="0" />
    <path
       style="opacity:1;fill:#003380;fill-opacity:0.87939698;fill-rule:nonzero;stroke:none;stroke-width:1.06500006;stroke-linecap:butt;stroke-linejoin:miter;stroke-miterlimit:4;stroke-dasharray:none;stroke-dashoffset:0;stroke-opacity:1;paint-order:stroke fill markers"
       d="m 257.34656,139.12961 c -0.24123,-0.0934 -0.26751,-0.1589 -0.20122,-0.50124 0.12675,-0.65341 -0.19567,-1.0653 -1.85325,-2.36694 -0.30255,-0.23766 -0.55012,-0.48062 -0.55012,-0.54003 0,-0.17725 0.81506,-0.1225 1.26747,0.085 0.2313,0.10612 0.68937,0.45267 1.01768,0.77006 0.61858,0.59803 1.59683,2.04204 1.59683,2.35712 0,0.31315 -0.69816,0.42035 -1.27748,0.19616 z"
       id="path880"
       inkscape:connector-curvature="0" />
    <path
       style="opacity:1;fill:#003380;fill-opacity:0.87939698;fill-rule:nonzero;stroke:none;stroke-width:1.06500006;stroke-linecap:butt;stroke-linejoin:miter;stroke-miterlimit:4;stroke-dasharray:none;stroke-dashoffset:0;stroke-opacity:1;paint-order:stroke fill markers"
       d="m 255.0308,148.40872 c -0.54948,-0.53105 -0.2643,-1.8032 0.47761,-2.12988 0.24824,-0.10923 0.32133,-0.0974 0.45036,0.0731 0.20034,0.26504 0.48517,0.17584 1.27772,-0.39972 0.90244,-0.65535 0.95614,-0.62608 0.48902,0.26645 -0.72374,1.38299 -1.68015,2.469 -2.17437,2.469 -0.12734,0 -0.36152,-0.1256 -0.52034,-0.27915 z"
       id="path882"
       inkscape:connector-curvature="0" />
    <path
       style="opacity:1;fill:#003380;fill-opacity:0.87939698;fill-rule:nonzero;stroke:none;stroke-width:1.06500006;stroke-linecap:butt;stroke-linejoin:miter;stroke-miterlimit:4;stroke-dasharray:none;stroke-dashoffset:0;stroke-opacity:1;paint-order:stroke fill markers"
       d="m 222.0645,155.86715 c -0.82207,-0.28027 -1.86446,-0.98479 -2.28258,-1.54263 -0.49819,-0.66467 -0.72149,-1.53174 -0.65861,-2.5574 0.094,-1.53476 0.73869,-2.50587 2.05131,-3.09023 1.25374,-0.55818 1.58197,-1.32387 0.73846,-1.72265 -0.68496,-0.3238 -2.58975,-0.5461 -5.28501,-0.61675 -3.48469,-0.0915 -6.23754,0.16399 -6.83845,0.63427 -0.59089,0.46244 0.21027,1.69358 1.47627,2.2683 0.9061,0.41135 2.19392,0.68408 3.83546,0.81223 2.28673,0.17838 3.55343,0.64728 2.52661,0.935 -0.19421,0.0545 -1.71003,0.0649 -3.36871,0.0226 -3.28,-0.0819 -3.67525,-0.035 -4.09929,0.48592 -0.31205,0.38338 -0.31628,1.09369 -0.009,1.39132 0.51104,0.49391 1.25274,0.58183 4.88836,0.57937 1.87628,-0.001 3.48489,0.0429 3.57466,0.0982 0.12499,0.077 0.045,0.18346 -0.34274,0.4547 -0.77,0.53907 -1.50347,0.71045 -3.32564,0.77697 -2.52997,0.0923 -4.26681,-0.26983 -5.08467,-1.06018 -0.87286,-0.84359 -0.98585,-2.20027 -0.76577,-9.19412 0.0827,-2.62898 0.15712,-4.78737 0.1653,-4.79646 0.009,-0.008 0.86176,-0.21112 1.89696,-0.44872 1.82659,-0.41948 1.94816,-0.4324 4.11725,-0.43825 2.03651,-0.006 2.43555,0.0282 4.49133,0.38025 1.24092,0.21253 2.31979,0.42422 2.39744,0.47062 0.0949,0.0567 0.1945,0.93512 0.30364,2.68337 0.28007,4.48059 0.43421,4.86149 2.33987,5.77758 1.45312,0.69857 2.54262,1.66736 2.76331,2.45715 0.33229,1.18929 -0.43689,3.95465 -1.31439,4.72553 -0.31205,0.27406 -1.76634,0.62171 -2.86433,0.68465 -0.48044,0.0282 -0.90437,-0.0282 -1.3276,-0.17161 z m 1.69233,-2.15028 c 0.23831,-0.15383 0.38854,-0.54285 0.27598,-0.71494 -0.20355,-0.31095 -0.11039,-0.72976 0.30823,-1.38517 0.51825,-0.81146 0.50552,-1.16902 -0.0546,-1.53258 -0.66118,-0.42922 -1.32549,-0.29574 -1.72728,0.34708 -0.2681,0.42919 -0.30539,1.71111 -0.0686,2.37072 0.29286,0.8161 0.8244,1.2001 1.26638,0.91489 z m -4.52433,-8.08627 c 2.12394,-0.4166 2.5038,-0.78304 2.4359,-2.3497 -0.0353,-0.81688 -0.0797,-0.98152 -0.3338,-1.24296 -0.22049,-0.22693 -0.36599,-0.28485 -0.58817,-0.23483 -1.22349,0.27603 -2.59083,0.41516 -5.26311,0.53514 -1.69718,0.0762 -3.06172,0.16173 -3.03232,0.19024 0.0295,0.0282 1.03404,0.18938 2.2325,0.35749 1.19845,0.16822 2.21076,0.33653 2.24952,0.37398 0.0388,0.0375 -1.29767,0.0607 -2.96988,0.0519 -2.74996,-0.0141 -3.10216,0.006 -3.68692,0.20717 -0.42133,0.14535 -0.66066,0.29613 -0.68706,0.4324 -0.12003,0.61909 1.87451,1.57331 3.95668,1.89302 1.077,0.1654 4.38836,0.0409 5.68666,-0.21366 z m -7.61355,-3.49218 c 0.31441,-0.11657 0.20705,-0.36145 -0.21787,-0.49702 -0.41169,-0.13124 -1.08415,-0.0291 -1.47809,0.22496 -0.15682,0.10104 -0.15682,0.12616 0,0.2258 0.19392,0.12306 1.40038,0.15608 1.6961,0.0466 z m 1.03891,-1.48195 c 0.52045,-0.0833 0.58584,-0.3398 0.11769,-0.46168 -0.76366,-0.1987 -2.0292,-0.046 -2.0292,0.245 0,0.23596 1.04724,0.35473 1.91157,0.21676 z m 8.2543,0.003 c 0.29385,-0.10895 0.21757,-0.34553 -0.16004,-0.49673 -0.39738,-0.15919 -1.1661,-0.0697 -1.49576,0.17387 -0.18836,0.13943 -0.19362,0.17499 -0.0403,0.27434 0.19275,0.12476 1.39772,0.15919 1.6961,0.0486 z"
       id="path884"
       inkscape:connector-curvature="0" />
    <path
       style="opacity:1;fill:#003380;fill-opacity:0.87939698;fill-rule:nonzero;stroke:none;stroke-width:1.06500006;stroke-linecap:butt;stroke-linejoin:miter;stroke-miterlimit:4;stroke-dasharray:none;stroke-dashoffset:0;stroke-opacity:1;paint-order:stroke fill markers"
       d="m 158.39119,130.9615 -0.73522,-0.0404 -0.002,-1.04621 c -0.002,-0.57542 -0.0789,-3.90887 -0.17201,-7.40763 -0.0935,-3.49878 -0.15858,-6.37222 -0.14456,-6.38543 0.0514,-0.0491 20.18808,0.47621 20.23741,0.528 0.099,0.10387 0.34671,9.39359 0.29715,11.13877 -0.071,2.50117 -0.25379,2.75446 -2.13451,2.9583 -2.21121,0.23963 -14.36729,0.41807 -17.34569,0.25459 z m 10.85193,-1.23129 c 4.14076,-0.0962 7.59484,-0.19616 7.67571,-0.22213 0.11477,-0.0367 0.1469,-1.18313 0.1469,-5.2235 v -5.17647 h -9.35203 -9.35206 v 5.46897 5.46897 l 1.67632,-0.0706 c 0.92198,-0.0387 5.06423,-0.14903 9.20502,-0.24556 z"
       id="path886"
       inkscape:connector-curvature="0" />
    <path
       style="opacity:1;fill:#003380;fill-opacity:0.87939698;fill-rule:nonzero;stroke:none;stroke-width:1.06500006;stroke-linecap:butt;stroke-linejoin:miter;stroke-miterlimit:4;stroke-dasharray:none;stroke-dashoffset:0;stroke-opacity:1;paint-order:stroke fill markers"
       d="m 79.723733,152.27195 c -1.121153,-0.0903 -1.633221,-0.33732 -1.514126,-0.73043 0.200926,-0.66295 0.569192,-1.57032 0.659229,-1.62412 0.149818,-0.0895 1.992083,0.26588 3.085229,0.59504 0.525735,0.15834 1.288581,0.46243 1.695192,0.67581 1.111661,0.58347 1.124278,0.57675 1.262677,-0.67226 0.04614,-0.41733 0.12733,-0.7588 0.179898,-0.7588 0.14865,0 0.545303,0.58573 0.932522,1.37704 0.283282,0.57881 0.320401,0.73636 0.190412,0.80667 -0.481345,0.26023 -4.698006,0.47539 -6.491091,0.33105 z"
       id="path888"
       inkscape:connector-curvature="0" />
    <path
       style="opacity:1;fill:#003380;fill-opacity:0.87939698;fill-rule:nonzero;stroke:none;stroke-width:1.06500006;stroke-linecap:butt;stroke-linejoin:miter;stroke-miterlimit:4;stroke-dasharray:none;stroke-dashoffset:0;stroke-opacity:1;paint-order:stroke fill markers"
       d="m 85.358321,156.11223 c -0.592993,-0.16568 -0.86027,-0.58852 -0.86027,-1.36055 0,-0.76098 0.148065,-1.21743 0.42828,-1.32141 0.297417,-0.11036 0.630433,0.36232 0.630433,0.89462 0,1.07463 0.319671,1.10029 1.882188,0.151 1.912238,-1.16162 2.044037,-1.15045 1.982037,0.1685 -0.04906,1.04416 -0.229254,1.31336 -0.993793,1.48477 -0.585517,0.13125 -2.578067,0.12024 -3.068875,-0.0169 z"
       id="path890"
       inkscape:connector-curvature="0" />
    <path
       style="opacity:1;fill:#003380;fill-opacity:0.87939698;fill-rule:nonzero;stroke:none;stroke-width:1.06500006;stroke-linecap:butt;stroke-linejoin:miter;stroke-miterlimit:4;stroke-dasharray:none;stroke-dashoffset:0;stroke-opacity:1;paint-order:stroke fill markers"
       d="m 87.664,152.30333 c -0.279485,-0.3256 -0.282405,-1.53523 -0.0058,-2.14136 0.428135,-0.93543 0.951447,-0.48536 0.954601,0.82106 0.0029,1.20283 -0.477198,1.87041 -0.949548,1.3203 z"
       id="path892"
       inkscape:connector-curvature="0" />
    <path
       style="opacity:1;fill:#003380;fill-opacity:0.87939698;fill-rule:nonzero;stroke:none;stroke-width:1.06500006;stroke-linecap:butt;stroke-linejoin:miter;stroke-miterlimit:4;stroke-dasharray:none;stroke-dashoffset:0;stroke-opacity:1;paint-order:stroke fill markers"
       d="m 90.414957,152.26887 c -0.684958,-0.41431 -0.998816,-1.46075 -0.513383,-1.71184 0.533008,-0.27576 1.63839,-0.0198 2.07333,0.47951 0.366397,0.42084 0.360936,0.57068 -0.03651,0.99663 -0.425011,0.45563 -1.010264,0.54618 -1.523559,0.23567 z"
       id="path894"
       inkscape:connector-curvature="0" />
    <path
       style="opacity:1;fill:#003380;fill-opacity:0.87939698;fill-rule:nonzero;stroke:none;stroke-width:1.06500006;stroke-linecap:butt;stroke-linejoin:miter;stroke-miterlimit:4;stroke-dasharray:none;stroke-dashoffset:0;stroke-opacity:1;paint-order:stroke fill markers"
       d="m 76.919216,155.84669 c -0.997268,-0.20661 -1.24384,-0.51355 -1.24384,-1.54819 0,-0.43424 0.04848,-0.78951 0.107472,-0.78951 0.05928,0 0.308893,0.2687 0.554881,0.5969 0.2459,0.32826 0.501934,0.63337 0.568754,0.67796 0.164128,0.10951 0.279777,-0.2066 0.289706,-0.79168 0.0058,-0.26559 0.05841,-0.48318 0.12003,-0.48318 0.06133,0 0.255245,0.18205 0.430968,0.40463 0.429361,0.54401 0.908925,0.7627 1.716686,0.78282 0.536337,0.0141 0.736065,0.0731 0.976855,0.29159 0.366221,0.33252 0.342449,0.67946 -0.05987,0.87554 -0.381992,0.186 -2.532509,0.17556 -3.461585,-0.0169 z"
       id="path896"
       inkscape:connector-curvature="0" />
    <path
       style="opacity:1;fill:#003380;fill-opacity:0.87939698;fill-rule:nonzero;stroke:none;stroke-width:1.06500006;stroke-linecap:butt;stroke-linejoin:miter;stroke-miterlimit:4;stroke-dasharray:none;stroke-dashoffset:0;stroke-opacity:1;paint-order:stroke fill markers"
       d="m 81.974157,156.13213 c -0.04089,-0.0641 -0.104843,-0.36439 -0.141933,-0.66735 -0.07739,-0.6308 0.161208,-1.21173 0.546121,-1.32976 0.344347,-0.10556 0.472905,0.0198 0.472905,0.46198 0,0.6568 -0.678825,1.84501 -0.877005,1.53513 z"
       id="path898"
       inkscape:connector-curvature="0" />
    <path
       style="opacity:1;fill:#003380;fill-opacity:0.87939698;fill-rule:nonzero;stroke:none;stroke-width:1.06500006;stroke-linecap:butt;stroke-linejoin:miter;stroke-miterlimit:4;stroke-dasharray:none;stroke-dashoffset:0;stroke-opacity:1;paint-order:stroke fill markers"
       d="m 122.47765,117.98442 c -0.19421,-0.0974 -0.45877,-0.3006 -0.58818,-0.45171 -0.37588,-0.43893 -1.37067,-0.62039 -3.40674,-0.62146 -2.00137,-7.6e-4 -3.65585,-0.15383 -4.24636,-0.39241 -0.21991,-0.0889 -0.50228,-0.32431 -0.62751,-0.52335 -0.77643,-1.23388 -0.96631,-7.36108 -0.29575,-9.54335 0.25816,-0.8398 0.55146,-1.07553 1.64805,-1.32394 0.73146,-0.16568 1.39141,-0.20971 3.10515,-0.20717 3.0682,0.006 4.42284,0.3326 4.87677,1.18098 0.30518,0.57037 0.55739,1.83078 0.57129,2.85521 0.0146,1.08742 -0.1726,1.70196 -0.51893,1.70196 -0.40436,0 -0.60929,-0.51398 -0.712,-1.78565 -0.13989,-1.73067 -0.21553,-1.77458 -1.79764,-1.04091 -0.55801,0.25883 -1.04949,0.43673 -1.09221,0.39544 -0.0426,-0.0412 0.0406,-0.31034 0.18515,-0.59792 0.14456,-0.28758 0.23568,-0.54909 0.20268,-0.5811 -0.033,-0.0319 -0.25817,0.1098 -0.49998,0.31491 -0.93915,0.79693 -2.85022,1.30001 -3.90035,1.02671 l -0.49691,-0.12927 0.0324,-0.59171 c 0.0315,-0.57415 0.0234,-0.59281 -0.30148,-0.62865 -0.52877,-0.0584 -0.78364,0.25007 -0.78364,0.94875 0,0.69899 0.25496,1.08056 0.95151,1.424 0.52346,0.25798 2.06495,0.6255 3.10693,0.74051 1.31077,0.1448 1.09659,0.2704 -0.47057,0.27632 -1.68731,0.006 -2.81054,0.12899 -3.31574,0.36182 -0.69965,0.32253 -0.37814,1.3918 0.55938,1.86033 0.5415,0.27068 1.58643,0.4947 2.91724,0.62552 1.29799,0.12758 2.25066,0.43032 2.25066,0.71511 0,0.09 -0.11915,0.19447 -0.26459,0.23229 -0.46125,0.11939 -1.87249,0.0734 -3.02913,-0.0988 -2.03153,-0.3026 -2.7751,-0.19193 -2.68737,0.40037 0.0473,0.32035 0.64392,0.74266 1.2844,0.90932 1.21309,0.3157 3.27196,0.4216 4.35112,0.22383 0.88571,-0.1623 1.13502,-0.42832 1.23335,-1.3159 0.16676,-1.50476 1.18681,-2.32088 2.9009,-2.32088 0.88205,0 1.72433,0.31815 2.71328,1.02484 0.9888,0.70661 1.24658,1.15341 1.04347,1.8086 -0.21991,0.70898 -1.25091,2.10809 -1.87296,2.5414 -1.06362,0.74087 -2.25618,0.97189 -3.02557,0.58612 z m 1.83581,-2.46497 c 0.19771,-0.68615 0.18924,-1.78407 -0.0175,-2.18853 -0.11478,-0.22523 -0.27657,-0.35267 -0.47703,-0.37525 -0.78153,-0.0881 -0.81815,0.92078 -0.0932,2.56378 0.1174,0.26588 0.26605,0.48318 0.33054,0.48318 0.0645,0 0.17989,-0.21733 0.25641,-0.48318 z m -2.28705,-9.47239 c 0.11448,-0.28832 -0.16792,-0.44767 -0.7785,-0.43904 -0.64798,0.008 -1.32993,0.34305 -1.05027,0.51423 0.0894,0.0548 0.52153,0.1002 0.9603,0.10133 0.61694,0.001 0.81377,-0.0387 0.86847,-0.17641 z"
       id="path900"
       inkscape:connector-curvature="0" />
    <path
       style="opacity:1;fill:#003380;fill-opacity:0.87939698;fill-rule:nonzero;stroke:none;stroke-width:1.06500006;stroke-linecap:butt;stroke-linejoin:miter;stroke-miterlimit:4;stroke-dasharray:none;stroke-dashoffset:0;stroke-opacity:1;paint-order:stroke fill markers"
       d="m 81.442084,186.5859 c -5.961734,-0.53142 -7.046528,-0.92005 -9.798273,-3.51036 -2.089947,-1.96733 -3.729855,-4.08273 -3.729855,-4.81133 0,-0.5783 0.192164,-0.7859 0.650175,-0.70283 l 0.402172,0.0728 -0.02628,-1.23425 c -0.02044,-1.00805 0.01168,-1.30308 0.186032,-1.6098 0.973992,-1.72438 3.980107,-2.72326 6.380174,-2.11995 2.307431,0.58002 3.541166,2.08751 3.670979,4.48559 0.107472,1.9852 -0.290583,3.01546 -1.739437,4.50204 -1.544089,1.58429 -2.352931,2.75565 -2.188599,3.16954 0.09959,0.25092 0.502548,0.21846 2.684926,-0.2162 4.747566,-0.94551 8.948896,-0.77347 10.301492,0.42185 0.548223,0.48445 0.239184,1.18618 -0.63934,1.45234 -0.561949,0.1702 -4.626748,0.23653 -6.154103,0.10048 z m -6.460661,-6.77466 c 0.327906,-0.17245 0.755486,-0.50799 0.950191,-0.74561 0.623687,-0.76103 1.434194,-3.38823 1.045309,-3.38823 -0.06191,0 -0.313391,0.27886 -0.558794,0.61962 -0.492706,0.68431 -0.740212,0.85786 -0.740212,0.51905 0,-0.93896 -1.056816,-1.36332 -2.42051,-0.97192 -1.689498,0.4849 -2.648392,2.21515 -1.920913,3.4661 0.595096,1.02335 2.225747,1.24749 3.644929,0.50099 z m -3.589353,-5.33611 c 0.918358,-0.41988 1.151204,-0.95787 0.414584,-0.95787 -0.37802,0 -1.160462,0.50929 -1.459046,0.94971 -0.202386,0.29865 -0.201802,0.30091 0.100171,0.30091 0.16734,0 0.592233,-0.13181 0.944379,-0.29275 z"
       id="path902"
       inkscape:connector-curvature="0" />
    <path
       style="opacity:1;fill:#003380;fill-opacity:0.87939698;fill-rule:nonzero;stroke:none;stroke-width:1.06500006;stroke-linecap:butt;stroke-linejoin:miter;stroke-miterlimit:4;stroke-dasharray:none;stroke-dashoffset:0;stroke-opacity:1;paint-order:stroke fill markers"
       d="m 91.833508,134.07992 c -0.226333,-0.0471 -0.906618,-0.22664 -1.511468,-0.39881 -1.150327,-0.32738 -1.274709,-0.33091 -3.622442,-0.10246 -0.782733,0.0762 -2.414523,-0.1829 -3.001967,-0.47635 -0.784953,-0.3923 -0.878377,-1.23397 -0.640859,-5.77363 0.09783,-1.86759 0.193624,-3.40949 0.212899,-3.42642 0.02044,-0.0169 1.05448,-0.0945 2.300247,-0.17274 5.38901,-0.33757 6.196158,0.0471 6.445183,3.0724 0.04381,0.5315 0.155951,1.14542 0.249404,1.36428 0.188952,0.44307 0.714834,1.02323 0.927383,1.02323 0.280653,0 1.208068,0.91886 1.403968,1.39084 0.27277,0.65694 0.25992,1.64165 -0.0295,2.262 -0.501,1.07413 -1.451461,1.50459 -2.732682,1.23761 z m 0.827738,-1.5566 c 0.348173,-1.6209 -0.204722,-2.90155 -0.965523,-2.23617 -0.292598,0.256 -0.270432,0.69252 0.08732,1.72265 0.475709,1.36955 0.669918,1.48313 0.878173,0.51352 z m -4.592083,-0.27519 c 0.562475,-0.18262 1.042126,-0.63114 1.309111,-1.22426 0.487186,-1.08231 1.173779,-1.59911 2.131738,-1.60453 0.614313,-0.003 0.590745,-0.32729 -0.0587,-0.80861 -0.74798,-0.55425 -1.264575,-1.04099 -1.264575,-1.19157 0,-0.0737 0.157119,-0.16427 0.349225,-0.20153 0.425886,-0.0824 0.854809,-0.47412 0.804958,-0.73531 -0.103676,-0.5424 -2.074235,-0.87834 -4.624441,-0.7883 -0.905801,0.0319 -1.895096,0.12052 -2.198412,0.19673 -1.584858,0.39859 -0.913919,1.12674 1.786689,1.93911 0.679351,0.20435 1.277075,0.40666 1.328328,0.44962 0.05111,0.0429 -0.727157,0.0734 -1.72977,0.0677 -1.553084,-0.008 -1.852107,0.0169 -2.020002,0.17895 -0.34537,0.33184 -0.130835,0.70401 0.625322,1.0849 0.695909,0.35053 0.947942,0.42518 2.824406,0.83656 0.597899,0.13097 1.1128,0.27858 1.144224,0.32769 0.09988,0.15637 -0.967013,0.23286 -2.216635,0.15891 -0.804783,-0.0477 -1.413167,-0.0254 -1.819515,0.07 -0.615597,0.14282 -0.995312,0.46427 -0.882817,0.74756 0.08148,0.2052 0.780777,0.51039 1.435829,0.62651 0.693193,0.12278 2.53578,0.0449 3.075154,-0.13012 z"
       id="path904"
       inkscape:connector-curvature="0" />
    <path
       style="opacity:1;fill:#003380;fill-opacity:0.87939698;fill-rule:nonzero;stroke:none;stroke-width:1.06500006;stroke-linecap:butt;stroke-linejoin:miter;stroke-miterlimit:4;stroke-dasharray:none;stroke-dashoffset:0;stroke-opacity:1;paint-order:stroke fill markers"
       d="m 72.916476,179.0597 c -0.610896,-0.51369 -0.482923,-2.17402 0.185155,-2.40078 0.476877,-0.16201 1.115954,0.0113 1.573089,0.42916 0.731743,0.66692 0.525765,1.58014 -0.453309,2.00984 -0.638085,0.27999 -0.936728,0.27124 -1.304819,-0.0384 z"
       id="path906"
       inkscape:connector-curvature="0" />
    <path
       style="opacity:1;fill:#003380;fill-opacity:0.87939698;fill-rule:nonzero;stroke:none;stroke-width:1.06500006;stroke-linecap:butt;stroke-linejoin:miter;stroke-miterlimit:4;stroke-dasharray:none;stroke-dashoffset:0;stroke-opacity:1;paint-order:stroke fill markers"
       d="m 114.77251,150.69948 c -1.20045,-0.38809 -2.47971,-1.361 -3.18374,-2.42136 -1.32748,-1.99934 -1.00755,-5.27071 0.65333,-6.68007 0.64276,-0.54542 1.2413,-0.79222 2.20028,-0.90729 1.04826,-0.12588 1.47377,-0.323 2.27294,-1.05346 0.90177,-0.82426 1.51372,-1.04873 3.00833,-1.10346 1.00235,-0.0367 1.45035,0.003 2.29388,0.20435 1.87451,0.447 4.00844,1.57941 5.87015,3.11504 1.36405,1.12519 1.81602,1.78698 1.91087,2.79813 0.038,0.40506 0.0175,0.6822 -0.0493,0.6822 -0.17348,0 -0.5437,-0.43901 -1.01555,-1.20399 -0.41117,-0.66656 -1.31884,-1.59631 -1.79303,-1.83662 -0.12529,-0.0635 -0.51008,-0.1733 -0.85487,-0.24358 -0.79818,-0.16286 -1.499,-0.62981 -2.09952,-1.39852 -1.25509,-1.60662 -4.25346,-2.08142 -5.89229,-0.93306 -1.16762,0.81813 -2.166,1.42914 -3.27742,2.00572 -1.4818,0.76873 -2.4642,1.64382 -2.9966,2.6692 -0.37083,0.71426 -0.39995,0.84892 -0.39995,1.85037 0,0.99784 0.0292,1.1277 0.36497,1.70538 0.87385,1.49733 2.69713,2.08932 6.39909,2.07769 2.09848,-0.006 3.78024,-0.20491 5.5716,-0.65657 1.86396,-0.47011 2.90293,-0.9588 4.50675,-2.11983 0.9086,-0.65775 1.1953,-0.11205 0.36184,0.68889 -1.55604,1.49515 -6.53429,2.7839 -11.26363,2.91585 -1.67119,0.0466 -2.03093,0.0254 -2.588,-0.15495 z"
       id="path908"
       inkscape:connector-curvature="0" />
    <path
       style="opacity:1;fill:#003380;fill-opacity:0.87939698;fill-rule:nonzero;stroke:none;stroke-width:1.06500006;stroke-linecap:butt;stroke-linejoin:miter;stroke-miterlimit:4;stroke-dasharray:none;stroke-dashoffset:0;stroke-opacity:1;paint-order:stroke fill markers"
       d="m 121.83521,146.46721 c -0.80773,-0.16426 -1.07463,-0.49376 -1.07877,-1.33142 -0.006,-1.08677 0.31964,-1.44102 0.85098,-0.9275 0.21377,0.20661 0.23685,0.32128 0.16909,0.84483 -0.071,0.54878 -0.0537,0.61846 0.18165,0.74025 0.14953,0.0773 0.48871,0.10952 0.79763,0.0759 0.59956,-0.0655 1.07478,-0.47088 1.07478,-0.91723 0,-0.8251 1.12489,-0.60266 1.57358,0.31118 0.28796,0.58635 0.24765,0.9179 -0.13259,1.08895 -0.40299,0.18148 -2.72785,0.2591 -3.43629,0.11516 z"
       id="path910"
       inkscape:connector-curvature="0" />
    <path
       style="opacity:1;fill:#003380;fill-opacity:0.87939698;fill-rule:nonzero;stroke:none;stroke-width:1.06500006;stroke-linecap:butt;stroke-linejoin:miter;stroke-miterlimit:4;stroke-dasharray:none;stroke-dashoffset:0;stroke-opacity:1;paint-order:stroke fill markers"
       d="m 115.18423,146.46973 c -1.20196,-0.17584 -1.57581,-0.5752 -1.38981,-1.48427 l 0.0993,-0.48501 0.99817,-0.32594 c 1.08117,-0.35301 1.60866,-0.37266 1.80649,-0.0672 0.26313,0.4061 -0.59898,1.04796 -1.86703,1.39016 -0.4567,0.12334 0.0824,0.28744 0.94108,0.28665 1.00285,-7.6e-4 1.72641,-0.28055 1.98729,-0.76822 0.23598,-0.44127 0.59309,-0.5172 1.20401,-0.256 0.48184,0.20604 0.86713,0.68442 0.86713,1.07675 0,0.5494 -2.7025,0.91759 -4.6466,0.63308 z"
       id="path912"
       inkscape:connector-curvature="0" />
    <path
       style="opacity:1;fill:#003380;fill-opacity:0.87939698;fill-rule:nonzero;stroke:none;stroke-width:1.06500006;stroke-linecap:butt;stroke-linejoin:miter;stroke-miterlimit:4;stroke-dasharray:none;stroke-dashoffset:0;stroke-opacity:1;paint-order:stroke fill markers"
       d="m 125.30435,253.47602 c 0,-0.0367 0.2278,-0.28084 0.50602,-0.54229 0.79001,-0.74203 1.36437,-2.38221 1.56506,-4.46913 0.11828,-1.2308 -0.20092,-1.62937 -1.30528,-1.62937 -0.14486,0 -0.40588,-0.1081 -0.57991,-0.24047 -0.24444,-0.18572 -0.30822,-0.32162 -0.28066,-0.59687 0.0298,-0.29685 0.0917,-0.36252 0.36973,-0.39332 1.02291,-0.11318 2.79508,2.20677 2.82333,3.696 0.009,0.48566 -0.0523,0.67573 -0.35011,1.08005 -0.47115,0.63994 -0.51761,0.79275 -0.31079,1.02256 0.10835,0.12052 0.14106,0.28375 0.0891,0.44291 -0.12325,0.37533 -0.98325,1.23072 -1.48715,1.47915 -0.41788,0.20604 -1.03929,0.29622 -1.03929,0.15072 z"
       id="path914"
       inkscape:connector-curvature="0" />
    <path
       style="opacity:1;fill:#003380;fill-opacity:0.87939698;fill-rule:nonzero;stroke:none;stroke-width:1.06500006;stroke-linecap:butt;stroke-linejoin:miter;stroke-miterlimit:4;stroke-dasharray:none;stroke-dashoffset:0;stroke-opacity:1;paint-order:stroke fill markers"
       d="m 109.22695,253.32233 c -0.88019,-0.51871 -1.39661,-2.08573 -1.29486,-3.92904 0.0759,-1.3765 0.3921,-2.33844 0.99038,-3.01394 0.49647,-0.56055 0.99694,-0.79471 1.69864,-0.79471 h 0.49933 l -0.78481,0.71057 c -0.86801,0.78589 -1.19194,1.36066 -1.36398,2.4202 -0.23393,1.4413 0.20881,2.82864 1.25607,3.93401 0.3341,0.35267 0.60745,0.69801 0.60745,0.76741 0,0.22015 -1.1932,0.15016 -1.60822,-0.0946 z"
       id="path916"
       inkscape:connector-curvature="0" />
    <path
       style="opacity:1;fill:#003380;fill-opacity:0.87939698;fill-rule:nonzero;stroke:none;stroke-width:1.06500006;stroke-linecap:butt;stroke-linejoin:miter;stroke-miterlimit:4;stroke-dasharray:none;stroke-dashoffset:0;stroke-opacity:1;paint-order:stroke fill markers"
       d="m 112.10054,251.24634 c -1.02207,-0.2625 -1.36922,-1.42336 -0.69471,-2.32325 0.95941,-1.28003 2.21786,-1.76824 2.59766,-1.00777 0.25933,0.51931 0.31094,2.18108 0.0841,2.70609 -0.28767,0.66526 -0.98071,0.88324 -1.98692,0.62493 z m 0.78667,-1.00831 c 0.45839,-0.49035 0.51175,-0.84297 0.15975,-1.05615 -0.29365,-0.17782 -0.82803,0.0415 -1.01386,0.41623 -0.12149,0.245 -0.12587,0.39927 -0.0204,0.70794 0.0742,0.21705 0.20385,0.39467 0.28854,0.39467 0.0844,0 0.34826,-0.2083 0.58616,-0.46269 z"
       id="path918"
       inkscape:connector-curvature="0" />
    <path
       style="opacity:1;fill:#003380;fill-opacity:0.87939698;fill-rule:nonzero;stroke:none;stroke-width:1.06500006;stroke-linecap:butt;stroke-linejoin:miter;stroke-miterlimit:4;stroke-dasharray:none;stroke-dashoffset:0;stroke-opacity:1;paint-order:stroke fill markers"
       d="m 116.04317,251.28627 c -0.98573,-0.27801 -1.24661,-1.80952 -0.44092,-2.58819 0.34221,-0.33074 0.58487,-0.33991 1.09171,-0.0412 0.65132,0.3838 1.19709,1.85483 0.87166,2.34944 -0.20063,0.305 -0.94721,0.44231 -1.52245,0.27999 z"
       id="path920"
       inkscape:connector-curvature="0" />
    <path
       style="opacity:1;fill:#003380;fill-opacity:0.87939698;fill-rule:nonzero;stroke:none;stroke-width:1.06500006;stroke-linecap:butt;stroke-linejoin:miter;stroke-miterlimit:4;stroke-dasharray:none;stroke-dashoffset:0;stroke-opacity:1;paint-order:stroke fill markers"
       d="m 120.06957,251.29957 c -0.77128,-0.18657 -1.32628,-1.00718 -1.42713,-2.10996 -0.0824,-0.90198 0.0859,-1.16091 0.73838,-1.13506 0.51826,0.0198 1.22772,0.28027 1.43942,0.52665 0.11944,0.13887 0.0479,0.23822 -0.4211,0.58392 -0.31065,0.22918 -0.60613,0.48747 -0.65663,0.5742 -0.13609,0.23342 0.0996,0.52149 0.83069,1.0152 0.56142,0.37917 0.62176,0.45346 0.42787,0.5269 -0.25378,0.0962 -0.58268,0.10246 -0.9315,0.0169 z"
       id="path922"
       inkscape:connector-curvature="0" />
    <path
       style="opacity:1;fill:#003380;fill-opacity:0.87939698;fill-rule:nonzero;stroke:none;stroke-width:1.06500006;stroke-linecap:butt;stroke-linejoin:miter;stroke-miterlimit:4;stroke-dasharray:none;stroke-dashoffset:0;stroke-opacity:1;paint-order:stroke fill markers"
       d="m 122.94479,251.28133 c -0.60301,-0.18938 -0.81658,-0.35806 -0.81658,-0.64502 0,-0.37776 0.28474,-0.46393 0.77929,-0.23596 0.22283,0.10274 0.42971,0.18657 0.45988,0.18657 0.1869,0 -0.0234,-0.41053 -0.53102,-1.03826 -0.61756,-0.76311 -0.71437,-1.00816 -0.39832,-1.00816 0.78977,0 1.97164,0.78818 2.40071,1.601 0.29724,0.56309 0.29029,0.7433 -0.0365,0.95036 -0.32434,0.20548 -1.44313,0.31945 -1.8573,0.18939 z"
       id="path924"
       inkscape:connector-curvature="0" />
    <path
       style="opacity:1;fill:#003380;fill-opacity:0.87939698;fill-rule:nonzero;stroke:none;stroke-width:1.06500006;stroke-linecap:butt;stroke-linejoin:miter;stroke-miterlimit:4;stroke-dasharray:none;stroke-dashoffset:0;stroke-opacity:1;paint-order:stroke fill markers"
       d="m 193.80386,255.88803 c -1.67361,-0.44522 -2.47518,-1.55381 -2.17706,-3.01094 0.15069,-0.73614 -7.9e-4,-1.26919 -0.55301,-1.94326 -0.44733,-0.54632 -0.44192,-0.675 0.0292,-0.6776 0.8327,-0.006 0.78411,-0.51897 -0.12383,-1.31144 -0.64857,-0.56599 -1.61502,-1.0713 -2.05259,-1.07319 -0.14193,-6.2e-4 -0.34041,-0.11488 -0.44113,-0.25375 -0.5458,-0.75309 0.22984,-2.03154 1.3938,-2.29736 0.46283,-0.10556 0.55483,0.0816 0.35419,0.72027 -0.22341,0.71127 -0.21115,0.92024 0.0543,0.92024 0.52355,0 0.6297,-1.1527 0.4817,-5.22976 -0.0683,-1.88401 0.0666,-2.4403 0.7591,-3.13003 0.57182,-0.56944 1.32769,-0.86329 2.88203,-1.12047 1.42348,-0.2354 2.08478,-0.23145 2.59632,0.0169 0.5899,0.28505 0.58195,0.53286 -0.0353,1.1045 -0.38824,0.35953 -0.82867,0.60119 -1.66914,0.91595 -1.82521,0.68347 -2.57672,1.28607 -2.88684,2.31467 -0.2386,0.79101 -0.26138,2.42503 -0.0616,4.39047 0.42223,4.15313 0.82662,6.31273 1.30423,6.96509 0.20063,0.27378 0.98684,0.70904 1.28128,0.70904 0.37487,0 1.51769,0.49407 1.90701,0.82448 0.53678,0.45546 0.51064,0.85397 -0.0745,1.13653 -0.49861,0.24076 -2.11533,0.25769 -2.96724,0.031 z"
       id="path926"
       inkscape:connector-curvature="0" />
    <path
       style="opacity:1;fill:#003380;fill-opacity:0.87939698;fill-rule:nonzero;stroke:none;stroke-width:1.06500006;stroke-linecap:butt;stroke-linejoin:miter;stroke-miterlimit:4;stroke-dasharray:none;stroke-dashoffset:0;stroke-opacity:1;paint-order:stroke fill markers"
       d="m 219.40282,236.9098 c 0.16822,-1.18708 1.67461,-4.53509 2.35317,-5.23044 0.3197,-0.3276 0.488,-0.41022 0.8358,-0.41022 0.5993,0 1.10637,0.3643 3.0658,2.2025 l 1.64692,1.54501 -0.25086,0.20858 c -0.61913,0.5146 -2.96657,1.84218 -3.25739,1.84218 -0.29529,0 -0.31488,-0.0322 -0.31488,-0.51725 0,-0.5711 0.19917,-1.02174 0.59229,-1.3402 0.21757,-0.17612 0.24619,-0.28321 0.18399,-0.68214 -0.092,-0.58812 -0.87765,-2.12728 -1.16753,-2.28732 -0.32569,-0.17979 -0.72947,0.36571 -1.53121,2.06877 -0.7731,1.64221 -1.67122,3.02185 -2.00648,3.08222 -0.20151,0.0364 -0.21611,-0.0113 -0.14953,-0.48166 z"
       id="path928"
       inkscape:connector-curvature="0" />
    <path
       style="opacity:1;fill:#003380;fill-opacity:0.87939698;fill-rule:nonzero;stroke:none;stroke-width:1.06500006;stroke-linecap:butt;stroke-linejoin:miter;stroke-miterlimit:4;stroke-dasharray:none;stroke-dashoffset:0;stroke-opacity:1;paint-order:stroke fill markers"
       d="m 216.53593,235.71691 c -0.56149,-0.55519 -1.08191,-1.17867 -1.15652,-1.38554 -0.13201,-0.36573 -0.11974,-0.3904 0.4399,-0.89489 0.63187,-0.56953 1.66602,-1.20391 2.14564,-1.31619 0.6535,-0.15298 0.97531,0.83374 0.42863,1.31427 -0.14544,0.12786 -0.35179,0.31039 -0.4583,0.40536 -0.28241,0.25177 -0.32224,0.76425 -0.13463,1.72466 0.29029,1.48643 0.10688,1.50853 -1.26472,0.15241 z"
       id="path930"
       inkscape:connector-curvature="0" />
    <path
       style="opacity:1;fill:#003380;fill-opacity:0.87939698;fill-rule:nonzero;stroke:none;stroke-width:1.06500006;stroke-linecap:butt;stroke-linejoin:miter;stroke-miterlimit:4;stroke-dasharray:none;stroke-dashoffset:0;stroke-opacity:1;paint-order:stroke fill markers"
       d="m 212.84088,235.78837 c -0.0263,-0.0782 -0.08,-1.89437 -0.12149,-4.03602 l -0.0756,-3.89391 h 8.06588 8.06587 l -0.0742,3.04121 c -0.0666,2.72819 -0.13638,3.38786 -0.33804,3.19291 -0.0345,-0.0333 -0.12791,-0.95081 -0.20793,-2.03885 l -0.14515,-1.97831 -7.22779,-0.0294 c -3.97529,-0.0169 -7.26653,0.008 -7.31384,0.0567 -0.0473,0.0474 -0.15245,1.37796 -0.23334,2.95684 -0.12967,2.52624 -0.23188,3.23265 -0.39438,2.72858 z"
       id="path932"
       inkscape:connector-curvature="0" />
    <path
       style="opacity:1;fill:#003380;fill-opacity:0.87939698;fill-rule:nonzero;stroke:none;stroke-width:1.06500006;stroke-linecap:butt;stroke-linejoin:miter;stroke-miterlimit:4;stroke-dasharray:none;stroke-dashoffset:0;stroke-opacity:1;paint-order:stroke fill markers"
       d="m 217.42309,239.67977 c -2.05408,-0.12899 -2.77271,-0.27717 -2.60642,-0.53712 0.28708,-0.44897 8.13205,-0.79631 10.7852,-0.47751 1.14037,0.13717 1.50496,0.33929 0.97513,0.54104 -1.18184,0.45002 -5.75862,0.68683 -9.15391,0.47359 z"
       id="path934"
       inkscape:connector-curvature="0" />
    <path
       style="opacity:1;fill:#ff0000;fill-opacity:0.87939698;fill-rule:nonzero;stroke:none;stroke-width:4.02519703;stroke-linecap:butt;stroke-linejoin:miter;stroke-miterlimit:4;stroke-dasharray:none;stroke-dashoffset:0;stroke-opacity:1;paint-order:stroke fill markers"
       d=""
       id="path940"
       inkscape:connector-curvature="0"
       transform="matrix(0.26458333,0,0,0.26458333,0,87)" />
    <path
       style="opacity:1;fill:#ff0000;fill-opacity:0.87939698;fill-rule:nonzero;stroke:none;stroke-width:4.02519703;stroke-linecap:butt;stroke-linejoin:miter;stroke-miterlimit:4;stroke-dasharray:none;stroke-dashoffset:0;stroke-opacity:1;paint-order:stroke fill markers"
       d=""
       id="path959"
       inkscape:connector-curvature="0"
       transform="matrix(0.26458333,0,0,0.26458333,0,87)" />
    <path
       style="opacity:1;fill:#003380;fill-opacity:0.87939698;fill-rule:nonzero;stroke:none;stroke-width:1.06500006;stroke-linecap:butt;stroke-linejoin:miter;stroke-miterlimit:4;stroke-dasharray:none;stroke-dashoffset:0;stroke-opacity:1;paint-order:stroke fill markers"
       d="m 86.470085,268.68538 c -0.515193,-0.98059 0.141349,-2.69486 1.607404,-4.19705 1.829883,-1.87495 2.625466,-4.67161 2.417619,-8.49857 -0.169677,-3.12258 -1.047587,-5.49263 -2.305504,-6.22331 -1.219629,-0.70845 -1.45449,0.36695 -1.193608,5.46583 0.298701,5.83802 -0.04965,7.38293 -2.018426,8.95134 -2.504852,1.99547 -2.775342,0.95411 -0.640771,-2.46703 1.525165,-2.44447 1.619933,-3.65857 0.544426,-6.97452 -0.906734,-2.79562 -0.959945,-4.5619 -0.156827,-5.20611 0.327702,-0.26277 0.927733,-1.10667 1.333381,-1.87518 0.405677,-0.76848 0.997093,-1.39724 1.314251,-1.39724 1.015959,0 4.261753,3.27547 4.935584,4.98073 0.514813,1.30275 0.598834,2.38481 0.430938,5.54871 -0.283281,5.33905 -1.301138,8.3964 -3.578606,10.74954 -1.899038,1.96214 -2.193709,2.08735 -2.68989,1.14286 z"
       id="path967"
       inkscape:connector-curvature="0" />
    <path
       style="opacity:1;fill:#003380;fill-opacity:0.87939698;fill-rule:nonzero;stroke:none;stroke-width:1.06500006;stroke-linecap:butt;stroke-linejoin:miter;stroke-miterlimit:4;stroke-dasharray:none;stroke-dashoffset:0;stroke-opacity:1;paint-order:stroke fill markers"
       d="m 77.182755,258.04346 c -0.811555,-0.86668 -0.799733,-1.44103 0.03323,-1.61356 1.816396,-0.3763 2.550749,0.57663 1.292491,1.67715 -0.650441,0.5689 -0.737338,0.56475 -1.325708,-0.0635 z"
       id="path969"
       inkscape:connector-curvature="0" />
    <path
       style="opacity:1;fill:#003380;fill-opacity:0.87939698;fill-rule:nonzero;stroke:none;stroke-width:1.06500006;stroke-linecap:butt;stroke-linejoin:miter;stroke-miterlimit:4;stroke-dasharray:none;stroke-dashoffset:0;stroke-opacity:1;paint-order:stroke fill markers"
       d="m 81.161533,258.50922 c 0,-0.93102 -0.26313,-2.02033 -0.597122,-2.471 -0.328405,-0.44327 -0.889963,-1.19874 -1.247891,-1.67882 -0.642112,-0.86125 -0.638365,-0.86938 0.281471,-0.612 1.551861,0.43427 3.015492,2.23555 3.015492,3.71115 0,1.36818 -0.554765,2.71566 -1.118086,2.71566 -0.183695,0 -0.333864,-0.74923 -0.333864,-1.66499 z"
       id="path971"
       inkscape:connector-curvature="0" />
    <path
       style="opacity:1;fill:#003380;fill-opacity:0.87939698;fill-rule:nonzero;stroke:none;stroke-width:1.06500006;stroke-linecap:butt;stroke-linejoin:miter;stroke-miterlimit:4;stroke-dasharray:none;stroke-dashoffset:0;stroke-opacity:1;paint-order:stroke fill markers"
       d="m 155.04004,149.94314 c 0.006,-0.15109 0.037,-0.18182 0.0784,-0.0784 0.0375,0.0936 0.0329,0.20549 -0.0102,0.24859 -0.0431,0.0431 -0.0737,-0.0335 -0.0681,-0.17023 z"
       id="path973"
       inkscape:connector-curvature="0" />
    <path
       style="opacity:1;fill:#003380;fill-opacity:0.87939698;fill-rule:nonzero;stroke:none;stroke-width:1.06500006;stroke-linecap:butt;stroke-linejoin:miter;stroke-miterlimit:4;stroke-dasharray:none;stroke-dashoffset:0;stroke-opacity:1;paint-order:stroke fill markers"
       d="m 168.76726,261.81199 v -2.2298 l -10.88973,0.13746 c -9.25474,0.11685 -11.10993,0.23173 -12.35638,0.76552 -0.80665,0.34538 -1.53106,0.62797 -1.60978,0.62797 -0.0787,0 -0.14313,-1.1531 -0.14313,-2.56248 v -2.56251 l 13.16237,-2.8e-4 13.16235,-2.9e-4 -0.11398,3.56949 c -0.12432,3.89275 -0.23267,4.48463 -0.82105,4.48463 -0.22561,0 -0.39066,-0.94206 -0.39066,-2.22977 z m -11.42587,-3.94824 c 0.74623,-0.45716 -0.76388,-0.76634 -3.7724,-0.77232 -3.14101,-0.006 -5.13768,0.34195 -4.43379,0.77319 0.65677,0.40241 7.54915,0.40167 8.20619,-7.3e-4 z"
       id="path975"
       inkscape:connector-curvature="0" />
    <path
       style="opacity:1;fill:#003380;fill-opacity:0.87939698;fill-rule:nonzero;stroke:none;stroke-width:1.06500006;stroke-linecap:butt;stroke-linejoin:miter;stroke-miterlimit:4;stroke-dasharray:none;stroke-dashoffset:0;stroke-opacity:1;paint-order:stroke fill markers"
       d="m 162.0251,269.45961 c -0.27583,-0.26644 -0.45453,-1.56191 -0.45453,-3.29463 0,-3.29549 0.32338,-3.5225 2.74876,-1.92968 2.69449,1.76956 2.99322,3.94849 0.69855,5.09533 -1.36275,0.68106 -2.37634,0.72475 -2.99278,0.12898 z"
       id="path977"
       inkscape:connector-curvature="0" />
    <path
       style="opacity:1;fill:#003380;fill-opacity:0.87939698;fill-rule:nonzero;stroke:none;stroke-width:1.06500006;stroke-linecap:butt;stroke-linejoin:miter;stroke-miterlimit:4;stroke-dasharray:none;stroke-dashoffset:0;stroke-opacity:1;paint-order:stroke fill markers"
       d="m 166.64539,271.80798 c 0,-0.14507 0.27682,-0.38552 0.61518,-0.53449 1.09934,-0.48412 1.34757,-1.22324 1.46845,-4.37244 0.1016,-2.64738 0.16716,-2.97696 0.59222,-2.97696 0.40994,0 0.46299,0.18487 0.37275,1.29956 -0.0579,0.71474 -0.17826,2.54792 -0.26751,4.07373 l -0.16229,2.77419 h -1.3094 c -0.72017,0 -1.3094,-0.11854 -1.3094,-0.26362 z"
       id="path979"
       inkscape:connector-curvature="0" />
  </g>
</svg>
